<svg id="Capa_1" enable-background="new 0 0 512 512" viewBox="0 0 512 512" xmlns="http://www.w3.org/2000/svg"><g><path d="m512 256c0 30.504-5.335 59.762-15.123 86.892-1.468 4.069-11.573-1.309-13.238 2.662-26.301 62.698-62.902 108.517-125.957 134.128-2.134.867-9.684 15.303-11.847 16.114-6.69 2.507-13.513 4.743-20.455 6.693-2.36.663-7.439-12.339-9.826-11.743-19.93 4.98-38.701 9.149-60.174 9.149-18.746 0-37.021-2.015-54.621-5.84-2.36-.513-4.087 11.048-6.422 10.47-8.494-2.101-16.821-4.625-24.957-7.55-6.366-2.288-8.301-23.411-14.422-26.179-40.693-18.398-77.141-40.847-103.149-76.561-3.715-5.102-10.134 1.964-13.472-3.414-24.304-39.154-38.337-85.349-38.337-134.821 0-141.385 114.615-256 256-256s256 114.615 256 256z" fill="#00a4fb" style="fill: rgb(227, 234, 237);"></path><path d="m479.213 239.593c0 112.906-91.528 204.434-204.434 204.434s-204.434-91.528-204.434-204.434 91.528-204.433 204.434-204.433 204.434 91.528 204.434 204.433z" fill="#49b6fc"></path><path d="m189.379 150v86.234c0 13.479-4.182 25.981-11.32 36.28-5.707 8.235-8.68 18.055-8.68 28.074v196.386c-43.275-15.558-81.147-42.441-110.042-77.076-1.683-2.017-14.045-49.409-14.045-49.409v-79.288c0-10.71-3.436-21.148-9.855-29.722-11.997-16.024-19.103-35.922-19.103-57.479v-52.881c0-.618.501-1.119 1.119-1.119h14.542l-22.637-128.385c-1.532-8.689 2.522-17.085 9.94-19.828 1.549-.573 4.687-1.194 5.987-1.419.355-.062 3.969-.343 5.47-.275 12.481.567 17.259 10.394 18.99 20.213l21.148 119.936 21.73-123.239c1.883-10.68 11.792-18.312 22.532-16.809 11.276 1.577 18.904 12.167 16.944 23.283l-22.31 126.523z" fill="#c96e59" style="fill: rgb(232, 207, 202);"></path><path d="m189.379 120v50c0 11.046-8.954 20-20 20-11.046 0-20-8.954-20-20 0 11.046-8.954 20-20 20-11.046 0-20-8.954-20-20v-50c0-11.046 8.954-20 20-20 11.046 0 20 8.954 20 20 0-11.046 8.954-20 20-20 11.046 0 20 8.954 20 20z" fill="#c96e59" style="fill: rgb(232, 207, 202);"></path><path d="m166.485 176.787c0 5.017 1.847 9.602 4.899 13.113-.659.066-1.328.099-2.005.099-11.046 0-20-8.954-20-20v-50c0-11.046 8.954-20 20-20 .677 0 1.346.034 2.005.099-3.051 3.511-4.899 8.096-4.899 13.113zm-35.101-76.688c-.659-.066-1.328-.099-2.005-.099-11.046 0-20 8.954-20 20v50c0 11.046 8.954 20 20 20 .677 0 1.346-.034 2.005-.099-3.051-3.511-4.899-8.096-4.899-13.113v-63.575c0-5.017 1.848-9.603 4.899-13.114zm-52.866 41.008c4.166.735 8.139-2.047 8.873-6.213l21.772-123.477c.789-4.477 3.011-8.342 6.111-11.206-10.656-1.552-20.685 5.642-22.568 16.32l-20.401 115.702c-.735 4.166 2.047 8.139 6.213 8.874zm-48.43-1.928c.735 4.166 4.707 6.948 8.873 6.213 4.166-.735 6.948-4.707 6.213-8.873l-21.772-123.477c-.789-4.477-.05-8.922 1.883-12.674-13.376.94-18.501 10.842-15.811 23.772zm24.291 48.321c-4.142 0-7.5 3.358-7.5 7.5s3.358 7.5 7.5 7.5c28.949 0 52.5 23.551 52.5 52.5 0 4.142 3.358 7.5 7.5 7.5s7.5-3.358 7.5-7.5c0-37.22-30.28-67.5-67.5-67.5zm-24 11.394v-22.424c0-3.573 2.897-6.47 6.47-6.47h32.53c16.568 0 30-13.431 30-30 0-2.278-.762-4.377-2.044-6.058-.138-.181-15.525 16.058-27.271 16.058h-47.915c-4.647 0-12.439-3.656-12.489-3.359-.185 1.092-.281 2.214-.281 3.359 0 .304.007.605.021.906-.013.069-.021.14-.021.213v52.881c0 21.557 7.106 41.455 19.102 57.479 6.419 8.574 9.855 19.012 9.855 29.722v99.619c6.326 10.192 13.348 19.907 21 29.078v-133.803c0-10.71-3.436-21.148-9.855-29.722-11.997-16.024-19.102-35.922-19.102-57.479z" fill="#bb5d4c" style="fill: rgb(197, 183, 180);"></path><path d="m24.319 153.036c-5.791 0-11.007-2.461-14.659-6.394 1.598-9.447 9.818-16.642 19.719-16.642h34.217l4.723 2.532h20.34c.811 0 2.319-2.435 3.075-2.253 2.266.547 4.23 1.866 5.6 3.663-4.363 11.176-15.235 19.094-27.956 19.094z" fill="#c96e59" style="fill: rgb(232, 207, 202);"></path><path d="m89.379 130c.852 0 1.679.107 2.468.307-.163 6.655-5.609 11.999-12.303 11.999h-11.948c-2.209 0-4-1.791-4-4v-8.306zm88.306 21.816h-16.613c-2.209 0-4 1.791-4 4v11.949c0 6.797 5.51 12.307 12.307 12.307s12.307-5.51 12.307-12.307v-11.949c-.001-2.209-1.791-4-4.001-4zm-40 0h-16.613c-2.209 0-4 1.791-4 4v11.949c0 6.797 5.51 12.307 12.307 12.307s12.307-5.51 12.307-12.307v-11.949c-.001-2.209-1.791-4-4.001-4z" fill="#d78878"></path><path d="m345.379 174.426v86.234c0 15.205-5.322 29.167-14.204 40.125-3.828 4.723-5.796 10.685-5.796 16.765v184.938c-22.064 6.197-45.334 9.512-69.379 9.512-21.259 0-41.913-2.591-61.664-7.476v-196.182c0-6.667-2.271-13.164-6.555-18.273-13.983-16.677-22.403-38.177-22.403-61.643v-54z" fill="#f6a96c"></path><path d="m211.782 290.068c4.284 5.109 6.555 11.606 6.555 18.273v200.907c-8.131-1.199-16.137-2.78-24-4.724v-196.182c0-6.667-2.271-13.164-6.555-18.273-13.983-16.677-22.403-38.177-22.403-61.643v-54h24v54c0 23.466 8.42 44.965 22.403 61.642zm-6.403-67.568c-4.142 0-7.5 3.358-7.5 7.5s3.358 7.5 7.5 7.5c28.949 0 52.5 23.551 52.5 52.5 0 4.142 3.358 7.5 7.5 7.5s7.5-3.358 7.5-7.5c0-37.22-30.28-67.5-67.5-67.5z" fill="#ea9b58"></path><path d="m345.379 144.425v50c0 11.046-8.954 20-20 20s-20-8.954-20-20c0 11.046-8.954 20-20 20-11.046 0-20-8.954-20-20 0 11.046-8.954 20-20 20-11.046 0-20-8.954-20-20 0 10.369-7.891 18.895-17.995 19.901-.659.066-3.75-2.645-4.427-2.645 0 0-13.578-6.21-13.578-17.255v-50c0-11.046 3.501-18.183 14.546-18.183l.692-.221c.677 0 2.108-1.562 2.767-1.496 10.104 1.006 17.995 9.532 17.995 19.901 0-11.046 8.954-20 20-20 11.046 0 20 8.954 20 20 0-11.046 8.954-20 20-20 11.046 0 20 8.954 20 20 0-11.046 8.954-20 20-20s20 8.953 20 19.998z" fill="#ffbd86"></path><path d="m202.485 137.638v63.575c0 5.017 1.847 9.602 4.899 13.113-.659.066-1.328.099-2.005.099-11.046 0-20-8.954-20-20v-50c0-11.046 8.954-20 20-20 .677 0 1.346.034 2.005.099-3.051 3.512-4.899 8.097-4.899 13.114zm44.899-13.113c-.659-.066-1.328-.099-2.005-.099-11.046 0-20 8.954-20 20v52.198c0 11.046 8.954 18.185 20 18.185.677 0 1.346-.417 2.005-.482-3.051-3.511-4.899-8.096-4.899-13.113v-63.575c0-5.018 1.848-9.603 4.899-13.114zm75.101 13.113c0-5.017 1.847-9.602 4.899-13.113-.659-.066-1.328-.099-2.005-.099-11.046 0-20 8.954-20 20v51.686c0 11.046 8.954 18.697 20 18.697.677 0 1.346-.417 2.005-.482-3.051-3.511-4.899-8.096-4.899-13.113zm-35.101-13.113c-.659-.066-1.328-.099-2.005-.099-11.046 0-20 8.954-20 20v53.899c0 11.046 8.954 16.484 20 16.484.677 0 1.346-.417 2.005-.482-3.051-3.511-4.899-8.096-4.899-13.113v-63.575c0-5.018 1.848-9.603 4.899-13.114z" fill="#f6a96c"></path><path d="m257.685 183.149v11.949c0 6.797-5.51 12.307-12.307 12.307s-12.307-5.51-12.307-12.307v-11.949c0-2.209 1.791-4 4-4h16.613c2.211 0 4.001 1.791 4.001 4zm76-4h-16.613c-2.209 0-4 1.791-4 4v11.949c0 6.797 5.51 12.307 12.307 12.307s12.307-5.51 12.307-12.307v-11.949c-.001-2.209-1.791-4-4.001-4zm-120 0h-16.613c-2.209 0-4 1.791-4 4v11.949c0 6.797 5.51 12.307 12.307 12.307s12.307-5.51 12.307-12.307v-11.949c-.001-2.209-1.791-4-4.001-4zm80 0h-16.613c-2.209 0-4 1.791-4 4v11.949c0 6.797 5.51 12.307 12.307 12.307s12.307-5.51 12.307-12.307v-11.949c-.001-2.209-1.791-4-4.001-4z" fill="#fed2a4"></path><path d="m255.379 164.426c0 16.569-13.431 30-30 30h-40c-11.046 0-20-8.954-20-20 0-1.145.096-2.267.281-3.359.05-.297 7.842 3.359 12.489 3.359h47.915c11.747 0 27.133-16.239 27.271-16.058 1.282 1.68 2.044 3.78 2.044 6.058z" fill="#ea9b58"></path><path d="m253.335 158.367c-4.363 11.176-15.235 19.094-27.956 19.094h-45.06c-5.791 0-11.007-2.461-14.659-6.394 1.597-9.447 9.818-16.641 19.719-16.641h35.872l3.217 1.149 20.553.128c1.46 0 3.204-.964 4.454-.402 1.529.687 2.854 1.748 3.86 3.066z" fill="#f6a96c"></path><path d="m249.475 155.301c-.449 6.388-5.773 11.431-12.275 11.431h-11.949c-2.209 0-4-1.791-4-4v-8.307h24.128c1.46.001 2.846.313 4.096.876z" fill="#fed2a4"></path><path d="m345.834 495.794v-113.082c-17.478-17.056-28.473-40.725-28.942-66.963l-22.159-82.951c-1.425-5.336 1.745-10.817 7.08-12.242 14.383-3.842 29.119 3.446 35.062 16.578l.596-67.73c0-9.862 6.542-17.461 15.934-19.104 1.127-.197 2.287-.3 3.47-.3 11.046 0 20 8.954 20 20v-2.489l.719-17.787c0-9.862 6.419-18.057 15.81-19.7 1.127-.197 2.287-.3 3.47-.3 11.046 0 20 8.954 20 20v20.276c0-11.046 8.954-20 20-20s20 8.954 20 20v32.319c0-11.046 8.954-20 20-20s20 8.954 20 20v140.572c-25.434 70.502-80.943 126.631-151.04 152.903z" fill="#ffdfcf"></path><path d="m433.406 150.3c-.907 2.284-1.406 4.774-1.406 7.38v90.489c0 4.176-3.386 7.562-7.562 7.562s-7.562-3.386-7.562-7.562v-79.084c0-9.862 7.139-17.142 16.53-18.785zm31.032 137.75c4.176 0 7.562-3.386 7.562-7.562v-90.488c0-2.607.499-5.097 1.406-7.38-9.391 1.643-16.53 8.604-16.53 18.466v79.403c0 4.176 3.386 7.561 7.562 7.561zm-114.838 20.567c0 4.142 3.358 7.5 7.5 7.5 28.949 0 52.5 23.551 52.5 52.5 0 4.142 3.358 7.5 7.5 7.5s7.5-3.358 7.5-7.5c0-37.22-30.28-67.5-67.5-67.5-4.142 0-7.5 3.358-7.5 7.5zm11.357 180.947v-96.659c0-7.682-2.575-15.17-7.427-21.127-11.188-13.735-18.652-30.624-20.853-49.128-1.132-9.517-3.119-18.912-5.593-28.171l-17.227-64.49c-1.036-3.876.355-7.829 3.239-10.248-3.673-.437-7.681-.456-11.473.557-5.994 2.326-8.957 4.758-7.488 10.258l19.025 71.219c2.075 7.769 3.444 15.699 4.394 23.685 2.147 18.051 9.303 34.565 20.038 48.113 5.294 6.682 8.243 14.918 8.243 23.444v98.778c5.12-1.92 10.163-3.999 15.122-6.231zm-24.081-320.542v111.743c0 4.176 3.386 7.562 7.562 7.562s7.562-3.386 7.562-7.562v-123.084c0-2.607.499-5.097 1.406-7.38-9.391 1.642-16.53 8.859-16.53 18.721zm55.124 91.466v-123.084c0-2.607.499-5.097 1.406-7.38-9.391 1.643-16.53 8.731-16.53 18.593v111.871c0 4.176 3.386 7.562 7.562 7.562s7.562-3.385 7.562-7.562z" fill="#ffcebf"></path></g></svg>